<svg xmlns="http://www.w3.org/2000/svg" viewBox="0 0 96 96" width="96" height="96">
  <defs>
    <linearGradient id="mon-top" x1="0" y1="0" x2="0" y2="1">
      <stop offset="0" stop-color="#F68A7C"/>
      <stop offset="1" stop-color="#D84B3E"/>
    </linearGradient>
    <linearGradient id="mon-page" x1="0" y1="0" x2="0" y2="1">
      <stop offset="0" stop-color="#FFFFFF"/>
      <stop offset="1" stop-color="#ECEFF1"/>
    </linearGradient>
    <linearGradient id="mon-ring" x1="0" y1="0" x2="1" y2="0">
      <stop offset="0" stop-color="#9AA5AB"/>
      <stop offset=".5" stop-color="#F4F6F7"/>
      <stop offset="1" stop-color="#7F8B91"/>
    </linearGradient>
  </defs>
  <ellipse cx="48" cy="86" rx="32" ry="4.5" fill="#1B2B2A" opacity=".14"/>
  <!-- back page edge -->
  <rect x="17" y="22" width="64" height="62" rx="9" fill="#C9D1D5"/>
  <!-- page -->
  <rect x="15" y="20" width="64" height="62" rx="9" fill="url(#mon-page)"/>
  <!-- top band -->
  <path d="M24 20 L70 20 a9 9 0 0 1 9 9 L79 36 L15 36 L15 29 a9 9 0 0 1 9 -9Z" fill="url(#mon-top)"/>
  <rect x="15" y="34" width="64" height="2" fill="#B23A2F" opacity=".35"/>
  <!-- rings -->
  <rect x="28" y="13" width="6" height="15" rx="3" fill="url(#mon-ring)"/>
  <rect x="60" y="13" width="6" height="15" rx="3" fill="url(#mon-ring)"/>
  <!-- date grid -->
  <g fill="#C7D0D4">
    <rect x="22" y="43" width="8" height="7" rx="2"/><rect x="34" y="43" width="8" height="7" rx="2"/><rect x="46" y="43" width="8" height="7" rx="2"/><rect x="58" y="43" width="8" height="7" rx="2"/>
    <rect x="22" y="55" width="8" height="7" rx="2"/><rect x="34" y="55" width="8" height="7" rx="2"/><rect x="58" y="55" width="8" height="7" rx="2"/>
    <rect x="22" y="67" width="8" height="7" rx="2"/><rect x="34" y="67" width="8" height="7" rx="2"/><rect x="46" y="67" width="8" height="7" rx="2"/>
  </g>
  <rect x="45" y="54" width="10" height="9" rx="2.5" fill="#F5BE3A"/>
  <!-- teal check badge -->
  <circle cx="72" cy="72" r="11" fill="#23807B"/>
  <circle cx="72" cy="72" r="11" fill="none" stroke="#fff" stroke-width="2.5"/>
  <path d="M67 72 L70.5 75.5 L77 69" fill="none" stroke="#fff" stroke-width="3" stroke-linecap="round" stroke-linejoin="round"/>
</svg>
