<svg xmlns="http://www.w3.org/2000/svg" viewBox="0 0 48 48" width="48" height="48"><defs><linearGradient id="blue" x1="0" y1="0" x2="0.6" y2="1"><stop offset="0" stop-color="#6CC0FF"/><stop offset="1" stop-color="#1F5FBF"/></linearGradient><linearGradient id="navy" x1="0" y1="0" x2="0.6" y2="1"><stop offset="0" stop-color="#5C7BA8"/><stop offset="1" stop-color="#24395E"/></linearGradient></defs><path d="M9 8 H39 L45 26 V40 C45 42 43 44 41 44 H7 C5 44 3 42 3 40 V26Z" fill="url(#blue)"/><path d="M3 26 H15 L18 32 H30 L33 26 H45 V40 C45 42 43 44 41 44 H7 C5 44 3 42 3 40Z" fill="url(#navy)"/><rect x="14" y="4" width="20" height="18" rx="2" fill="#fff"/><path d="M18 10 H30 M18 15 H27" stroke="#9AA8B8" stroke-width="2.5" stroke-linecap="round"/></svg>
